<?xml version="1.0" encoding="UTF-8" standalone="no"?>
<svg xmlns:dc="http://purl.org/dc/elements/1.1/" xmlns:cc="http://creativecommons.org/ns#" xmlns:rdf="http://www.w3.org/1999/02/22-rdf-syntax-ns#" xmlns:svg="http://www.w3.org/2000/svg" xmlns="http://www.w3.org/2000/svg" xmlns:sodipodi="http://sodipodi.sourceforge.net/DTD/sodipodi-0.dtd" xmlns:inkscape="http://www.inkscape.org/namespaces/inkscape" version="1.1" id="svg2" xml:space="preserve" width="690.78668" height="182.56" viewBox="0 0 690.78668 182.56" sodipodi:docname="GRAWE_Logo_2021_100-30-80-0.eps">
  <metadata id="metadata8"></metadata>
  <defs id="defs6"></defs>
  <g id="g10" inkscape:groupmode="layer" inkscape:label="ink_ext_XXXXXX" transform="matrix(1.3333333,0,0,-1.3333333,0,182.56)">
    <g id="g12" transform="scale(0.1)">
      <path d="M 5167.51,792.242 H 4839.1 V 589.828 h 281.49 V 445.055 H 4839.1 V 172.922 h 335.09 V 13.4102 H 4651.4 V 951.762 h 529.52 l -13.41,-159.52" style="fill:#108565;fill-opacity:1;fill-rule:nonzero;stroke:none" id="path14"></path>
      <path d="m 4416.91,13.4805 h -220.47 c 0,0 -130.82,641.4375 -134.82,668.2345 C 4057.58,654.918 3933.74,13.4805 3933.74,13.4805 H 3713.29 L 3557.82,951.711 h 193.99 c 0,0 65.48,-584.191 72.18,-669.973 2.68,22.801 126.18,669.973 126.18,669.973 h 229.85 c 0,0 113.33,-528.055 130.75,-670.133 12.07,144.766 67.62,670.133 67.62,670.133 h 193.99 L 4416.91,13.4805" style="fill:#108565;fill-opacity:1;fill-rule:nonzero;stroke:none" id="path16"></path>
      <path d="m 3398.12,13.3984 -38.87,182.3206 h -262.73 l -38.9,-182.3206 h -198.39 l 252.02,938.3786 h 233.26 L 3596.53,13.3984 H 3398.12 M 3278.81,573.734 c -22.77,105.914 -48.27,243.981 -50.92,257.391 -12.06,-60.324 -28.17,-151.477 -50.97,-257.391 L 3127.34,340.48 h 201.06 l -49.59,233.254" style="fill:#108565;fill-opacity:1;fill-rule:nonzero;stroke:none" id="path18"></path>
      <path d="m 2596.09,13.3984 -57.64,213.1526 c -22.79,85.801 -57.64,146.109 -81.76,171.59 l -76.42,-6.731 V 13.3984 H 2192.59 V 951.762 h 257.38 c 201.08,0 345.85,-46.914 345.85,-265.422 0,-148.797 -67.02,-218.492 -170.24,-254.703 36.2,-22.774 69.71,-83.117 92.49,-148.797 l 91.15,-269.4416 h -213.13 m -155.5,789.5626 h -60.32 V 522.797 c 127.35,12.062 227.88,21.445 227.88,159.527 0,89.809 -48.26,120.637 -167.56,120.637" style="fill:#108565;fill-opacity:1;fill-rule:nonzero;stroke:none" id="path20"></path>
      <path d="M 2075.3,48.2617 C 2004.26,28.1484 1874.23,0 1762.97,0 c -172.93,0 -357.93,48.2617 -357.93,469.176 0,419.59 223.87,496 410.21,496 100.53,0 176.95,-26.824 219.84,-48.262 V 766.777 c -45.58,16.094 -140.75,46.918 -219.84,46.918 -95.18,0 -222.53,-50.945 -222.53,-331.113 0,-296.262 99.2,-332.453 167.56,-332.453 38.88,0 103.23,8.062 127.36,13.41 v 282.844 h -127.36 l -13.4,143.445 H 2075.3 V 48.2617" style="fill:#108565;fill-opacity:1;fill-rule:nonzero;stroke:none" id="path22"></path>
      <path d="m 857.93,404.027 5.05,5.598 c 25.836,31.355 36.895,40.605 60.668,82.898 11.207,19.446 22.188,79.297 21.399,114.532 l -0.207,344.687 274.7,-0.047 -0.29,-329.601 c -2.87,-73.965 0.07,-123.828 -23.92,-202.871 -23.26,-76.621 -61.17,-136.871 -108.42,-181.075 L 857.297,13.2617 662.781,206.559 829.785,372.75 857.93,404.027" style="fill:#108565;fill-opacity:1;fill-rule:nonzero;stroke:none" id="path24"></path>
      <path d="m 361.613,404.027 -5.054,5.598 c -25.836,31.355 -36.891,40.605 -60.664,82.898 -11.207,19.446 -22.192,79.297 -21.403,114.532 L 274.699,951.742 0,951.695 0.289063,622.094 C 3.15625,548.129 0.222656,498.266 24.2148,419.223 47.4688,342.602 85.3828,282.352 132.629,238.148 L 362.242,13.2617 556.766,206.559 389.758,372.75 361.613,404.027" style="fill:#108565;fill-opacity:1;fill-rule:nonzero;stroke:none" id="path26"></path>
      <path d="m 531.301,842.551 21.066,17.367 H 517.273 Z M 782.07,671.918 781.863,848.605 c 4.539,13.622 -10.164,10.637 -16.004,8.7 C 743.32,848.93 726.793,830.59 723.703,806.438 V 677.012 l -1.461,-15.278 c -3.629,-8.371 -9.812,-16.718 -18.894,-19.629 -7.461,-1.445 -16.012,-0.734 -22.551,2.196 l -43.629,42.894 -7.973,11.649 c -4.55,13.051 -4.55,26.144 2.903,37.777 20.707,27.813 50.16,41.266 63.246,71.992 10.359,28.907 -3.457,58.157 -24.723,77.071 h 23.508 c -6.34,17.73 -27.121,15.996 -41.477,15.996 -0.992,0.972 -1.957,1.906 -2.789,2.945 -11.437,14.023 -16.273,27.438 -25.242,21.84 -6.375,-6.313 4.363,-12.711 12.836,-24.735 h -12.223 c -1.031,0 -1.941,1.172 -3.222,2.762 -12.407,15.137 -15.418,28.074 -25.11,21.383 -4.894,-5.926 2.922,-12.43 12.043,-24.195 -5.996,0.168 -15.754,-2.719 -20.476,-5.817 -23.727,0 -50.141,-0.14 -69.875,-0.14 13.039,-34.453 58.847,-20.645 72.785,-24.778 -6.574,-8.347 -15.27,-16.05 -22.539,-25.269 4.355,-1.621 7.445,-1.426 11.637,-1.426 12,-0.754 21.984,4.355 29.066,13.785 8.023,0 18.066,-0.109 25.738,-0.109 -29.988,-31.078 -66.789,-67.871 -96.953,-96.969 l -58.933,57.106 0.097,28.347 c -1.152,8.18 -12.082,9.641 -19,7.281 -5.804,-2.722 -7.25,-11.679 -7.437,-17.476 -0.489,0.019 -9.27,8.922 -15.817,7.285 -4.183,-1.293 -8.73,-2.734 -10.902,-7.266 -2.379,-7.273 3.176,-14.261 7.012,-19.425 -0.485,0.129 -5.692,-1.668 -11.383,-2.375 -7.016,-2.309 -12.563,-8.735 -10.024,-16.032 3.008,-13.031 23.067,-9.339 39.454,-9.425 -0.344,-17.317 -5.793,-31.614 9.828,-38.528 7.281,-2.539 13.824,2.715 18.172,7.992 14.55,-14.003 29.996,-27.644 41.464,-42.898 -18.734,-19.809 -41.707,-41.867 -60.242,-60.059 -10.219,9.188 -18.363,19.981 -26.289,15.723 -4,-0.559 -7.992,-4.191 -9.453,-8.008 -2.727,-7.461 6.156,-19.531 6.129,-19.941 l -9.039,-0.422 c -4.531,-1.094 -7.453,-4.695 -9.438,-8.719 -0.918,-5.285 0.532,-11.816 6.536,-14.531 3.457,-2.199 12.585,-2.129 12.281,-2.734 0.304,0.261 -5.567,-5.461 -6.469,-8.899 -1.27,-4.902 -1.086,-10.918 2.91,-14.558 15.817,-10.754 24.18,2.324 37.985,17.089 11.375,-10.343 16.355,-21.445 30.347,-20 7.438,1.973 12.223,7.586 9.442,16.016 -2.551,7.273 -5.336,7.332 -15.969,19.617 l 47.73,44.914 c 19.059,-20.09 22.746,-23.086 40.25,-42.004 -14.84,-15.859 -34.726,-27.097 -40.738,-47.265 -1.016,-31.192 -0.297,-51.485 -1.445,-79.227 l -19.805,-19.414 c -11.699,9.375 -12.027,20.41 -25.398,16.727 -5.348,-0.703 -7.508,-5.321 -9.317,-8.953 -1.828,-6.731 3.305,-12.395 7.297,-17.481 -7.68,0 -2.328,2.344 -12.367,0.34 -7.68,-3.68 -10.359,-7.031 -10.027,-14.024 2,-10.039 6.355,-16.062 21.738,-14.402 -4.363,-6.008 -8.113,-10.801 -7.375,-17.726 1.359,-5.692 3.996,-7.598 8.004,-8.739 13.988,-3.781 21.761,10.742 32.136,20.117 10.364,-9.667 15.536,-20.644 29.09,-21.718 4.907,-0.539 7.09,1.804 10.364,3.652 9.023,11.375 -6.024,22.41 -13.438,32.859 11.453,16.399 32.184,34.036 46.902,50.391 l 0.731,4.356 c 0,17.109 -0.254,22.832 -0.254,37.062 0,19.617 2.398,23.191 17.73,33.164 l 9.79,4.473 c 3.085,-14.543 -1.278,-28.567 4.355,-42.903 13.09,-30.117 59.57,-26.445 82.309,-26.406 v -32.129 l -11.262,9.649 c 0,0 -10.817,10.429 -18.703,8.898 -4.18,-0.715 -8.711,-3.82 -10.164,-8.008 -2.907,-7.257 1.632,-13.254 6.535,-18.164 -9.543,0.254 -16.57,-0.402 -19.914,-7.433 -2.348,-5.36 -4.012,-9.707 0.676,-15.692 9.363,-8.703 10.363,-4.687 18.523,-5.937 -3.453,-4.551 -6.559,-9.492 -7.277,-15.285 0.527,-4.559 4.355,-9.09 8.714,-10.946 16.004,-2.668 19.489,8.106 31.27,20.391 17.98,-15.645 17.805,-22.16 32.723,-21.086 3.988,0.695 6.906,3.809 8.73,7.285 5.805,12.883 -6.758,18.215 -14.551,28.32 5.821,7.825 17.489,14.29 18.176,21.114 v 82.441 c -23.43,1.008 -32.773,-2.012 -42.172,4.055 -22.554,13.789 -13.812,43.758 -13.812,64.734 l 2.902,0.742 c 14.731,-8.562 37.629,-6.004 52.359,0.715 16.172,9.071 29.286,26.367 31.465,44.344 z M 762.496,396.625 610.684,245.148 458.863,396.625 h -0.008 l -62.453,62.297 c -9.828,14.676 -29.339,24.656 -43.238,69.805 -7.625,30.886 -5.875,74.238 -5.875,74.238 v 348.836 h 527.336 l -0.008,-348.797 c 0.703,-26.379 0.008,-54.152 -9.019,-77.051 -17.352,-41.66 -30.563,-55.558 -40.629,-67.031 l -62.473,-62.297" style="fill:#108565;fill-opacity:1;fill-rule:nonzero;stroke:none" id="path28"></path>
      <path d="m 604.273,893.246 c -0.582,-1.738 -3.875,0.746 -4.605,-3.484 2.121,0 7.18,-3.61 8.723,-0.168 0.554,1.914 -2.399,4.019 -4.118,3.652" style="fill:#108565;fill-opacity:1;fill-rule:nonzero;stroke:none" id="path30"></path>
      <path d="m 603.762,1369.17 h -9.66 v -13.85 h -14.375 v -9.66 h 24.035 v 23.51" style="fill:#108565;fill-opacity:1;fill-rule:nonzero;stroke:none" id="path32"></path>
      <path d="m 618.395,1369.17 h 9.66 v -13.85 h 14.375 v -9.66 h -24.035 v 23.51" style="fill:#108565;fill-opacity:1;fill-rule:nonzero;stroke:none" id="path34"></path>
      <path d="m 801.387,1013.52 h -54.532 l 54.532,149.07 z m -110.715,170.61 h 107.644 l -57.187,-157.18 z m -62.098,-170.61 56.531,155.18 49.891,-155.18 z m -0.394,170.61 h 51.84 l -51.84,-140.91 z m 57.402,65.03 c 9.555,0 17.32,-11.66 17.32,-26.02 0,-14.37 -7.765,-26 -17.32,-26 -9.559,0 -17.309,11.63 -17.309,26 0,14.36 7.75,26.02 17.309,26.02 z m -91.367,-211.33 -53.637,146.3 h 53.637 z m -108.582,-24.31 49.875,155.18 56.539,-155.18 z m -63.313,170.61 h 107.633 l -50.465,-157.18 z m -3.164,-170.61 v 149.31 l 54.61,-149.31 z m 116.184,235.64 c 9.555,0 17.312,-11.66 17.312,-26.02 0,-14.37 -7.757,-26 -17.312,-26 -9.57,0 -17.32,11.63 -17.32,26 0,14.36 7.75,26.02 17.32,26.02 z m 92.738,52.43 v 19.89 h 14.235 v 9.55 h -23.875 l 0.109,-146.9 -0.109,-170.61 h -14.59 v 215.72 l -0.082,72.72 v 29.07 h -24.098 v -9.55 h 14.465 v -19.81 C 492.637,1297.17 412.355,1250.8 409.52,1193.68 v -189.72 h 184.613 216.898 v 189.72 c -2.82,56.79 -82.246,102.99 -182.953,107.91" style="fill:#108565;fill-opacity:1;fill-rule:nonzero;stroke:none" id="path36"></path>
    </g>
  </g>
</svg>
